<svg width="38" height="38" viewBox="0 0 38 38" fill="none" xmlns="http://www.w3.org/2000/svg" xmlns:xlink="http://www.w3.org/1999/xlink">
<path d="M13.666,0.25C17.257,0.25 20.702,1.677 23.241,4.216C25.781,6.756 27.207,10.2 27.207,13.792C27.207,17.146 25.978,20.229 23.957,22.604L24.52,23.167L26.166,23.167L36.582,33.583L33.457,36.708L23.041,26.292L23.041,24.646L22.478,24.083C20.021,26.181 16.896,27.333 13.666,27.333C10.074,27.333 6.63,25.907 4.09,23.367C1.551,20.828 0.124,17.383 0.124,13.792C0.124,10.2 1.551,6.756 4.09,4.216C6.63,1.677 10.074,0.25 13.666,0.25ZM13.666,4.417C8.457,4.417 4.291,8.583 4.291,13.792C4.291,19 8.457,23.167 13.666,23.167C18.874,23.167 23.041,19 23.041,13.792C23.041,8.583 18.874,4.417 13.666,4.417Z" fill="#000000" fill-opacity="0.5"/>
</svg>
