<svg width="40" height="40" viewBox="0 0 40 40" fill="none" xmlns="http://www.w3.org/2000/svg" xmlns:xlink="http://www.w3.org/1999/xlink">
<path d="M19,15.222L19,17.609L19,15.222ZM12.389,8.611L10.002,8.611L12.389,8.611ZM2,36L-0.387,36C-0.387,37.318 0.682,38.387 2,38.387L2,36ZM36,36L36,38.387C37.318,38.387 38.387,37.318 38.387,36L36,36ZM35.176,26.903L37.304,25.82L37.303,25.819L35.176,26.903ZM31.875,23.601L32.958,21.474L32.958,21.474L31.875,23.601ZM6.125,23.601L5.042,21.474L5.042,21.474L6.125,23.601ZM2.824,26.903L0.697,25.819L0.696,25.82L2.824,26.903ZM19,17.609C20.182,17.609 21.352,17.377 22.443,16.924L20.616,12.514C20.104,12.726 19.555,12.835 19,12.835L19,17.609ZM22.443,16.924C23.535,16.472 24.527,15.809 25.363,14.974L21.987,11.598C21.595,11.99 21.129,12.301 20.616,12.514L22.443,16.924ZM25.363,14.974C26.198,14.138 26.861,13.146 27.313,12.055L22.902,10.228C22.69,10.74 22.379,11.206 21.987,11.598L25.363,14.974ZM27.313,12.055C27.766,10.963 27.998,9.793 27.998,8.611L23.224,8.611C23.224,9.166 23.115,9.715 22.902,10.228L27.313,12.055ZM27.998,8.611C27.998,7.429 27.766,6.259 27.313,5.168L22.902,6.995C23.115,7.507 23.224,8.056 23.224,8.611L27.998,8.611ZM27.313,5.168C26.861,4.076 26.198,3.084 25.363,2.248L21.987,5.624C22.379,6.017 22.69,6.482 22.902,6.995L27.313,5.168ZM25.363,2.248C24.527,1.413 23.535,0.75 22.443,0.298L20.616,4.709C21.129,4.921 21.595,5.232 21.987,5.624L25.363,2.248ZM22.443,0.298C21.352,-0.154 20.182,-0.387 19,-0.387L19,4.387C19.555,4.387 20.104,4.496 20.616,4.709L22.443,0.298ZM19,-0.387C16.614,-0.387 14.325,0.561 12.637,2.248L16.013,5.624C16.805,4.832 17.88,4.387 19,4.387L19,-0.387ZM12.637,2.248C10.95,3.936 10.002,6.225 10.002,8.611L14.776,8.611C14.776,7.491 15.221,6.416 16.013,5.624L12.637,2.248ZM10.002,8.611C10.002,10.998 10.95,13.286 12.637,14.974L16.013,11.598C15.221,10.806 14.776,9.731 14.776,8.611L10.002,8.611ZM12.637,14.974C14.325,16.661 16.614,17.609 19,17.609L19,12.835C17.88,12.835 16.805,12.39 16.013,11.598L12.637,14.974ZM-0.387,34.867L-0.387,36L4.387,36L4.387,34.867L-0.387,34.867ZM2,38.387L36,38.387L36,33.613L2,33.613L2,38.387ZM38.387,36L38.387,34.867L33.613,34.867L33.613,36L38.387,36ZM38.387,34.867C38.387,32.79 38.389,31.09 38.276,29.71C38.161,28.303 37.915,27.021 37.304,25.82L33.049,27.987C33.261,28.403 33.427,28.987 33.518,30.099C33.611,31.239 33.613,32.712 33.613,34.867L38.387,34.867ZM37.303,25.819C36.35,23.949 34.829,22.428 32.958,21.474L30.791,25.728C31.763,26.224 32.554,27.014 33.049,27.987L37.303,25.819ZM32.958,21.474C31.757,20.863 30.475,20.617 29.068,20.501C27.688,20.389 25.987,20.391 23.911,20.391L23.911,25.165C26.066,25.165 27.539,25.167 28.679,25.26C29.791,25.351 30.375,25.517 30.791,25.728L32.958,21.474ZM23.911,20.391L14.089,20.391L14.089,25.165L23.911,25.165L23.911,20.391ZM14.089,20.391C12.013,20.391 10.312,20.389 8.932,20.501C7.525,20.617 6.243,20.863 5.042,21.474L7.209,25.728C7.625,25.517 8.209,25.351 9.321,25.26C10.461,25.167 11.934,25.165 14.089,25.165L14.089,20.391ZM5.042,21.474C3.171,22.428 1.65,23.949 0.697,25.819L4.951,27.987C5.446,27.014 6.237,26.224 7.209,25.728L5.042,21.474ZM0.696,25.82C0.085,27.021 -0.161,28.303 -0.276,29.71C-0.389,31.09 -0.387,32.79 -0.387,34.867L4.387,34.867C4.387,32.712 4.389,31.239 4.482,30.099C4.573,28.987 4.739,28.403 4.951,27.987L0.696,25.82Z" fill="#000000"/>
</svg>
